<?xml version="1.0" standalone="no"?>
<!DOCTYPE svg PUBLIC "-//W3C//DTD SVG 20010904//EN"
 "http://www.w3.org/TR/2001/REC-SVG-20010904/DTD/svg10.dtd">
<svg version="1.0" xmlns="http://www.w3.org/2000/svg"
 width="500.000000pt" height="500.000000pt" viewBox="0 0 500.000000 500.000000"
 preserveAspectRatio="xMidYMid meet">

<g transform="translate(0.000000,500.000000) scale(0.100000,-0.100000)"
fill="#000000" stroke="none">
<path d="M2370 3681 c-180 -34 -364 -126 -469 -235 -31 -32 -41 -36 -83 -36
-186 0 -240 -254 -71 -326 132 -57 274 70 229 205 l-15 46 32 34 c109 114 328
201 507 201 142 0 306 -53 426 -136 256 -179 375 -513 289 -809 -80 -276 -306
-482 -580 -530 -110 -19 -160 -19 -270 0 -162 28 -293 101 -412 228 -100 108
-171 253 -189 390 l-7 47 626 0 c489 0 628 3 634 12 15 25 3 149 -21 219 -48
137 -142 244 -269 304 -249 119 -538 30 -681 -209 -52 -86 -49 -96 22 -96 l57
0 35 56 c39 61 109 121 185 155 73 34 226 34 308 1 108 -44 217 -172 241 -284
l6 -28 -627 -2 -628 -3 -3 -69 c-9 -202 81 -426 236 -588 106 -112 233 -187
393 -235 83 -24 110 -28 229 -28 119 0 146 4 229 28 215 64 379 185 498 369
177 272 177 654 0 926 -159 245 -409 387 -697 397 -63 2 -135 0 -160 -4z
m-513 -410 c16 -21 16 -32 -3 -59 -18 -26 -50 -28 -76 -5 -24 21 -23 48 3 74
22 22 55 18 76 -10z"/>
<path d="M2010 2642 c0 -10 16 -45 36 -78 127 -212 376 -310 608 -240 40 12
51 12 74 0 37 -19 120 -18 162 4 93 46 115 183 42 266 -23 26 -90 56 -126 56
-84 0 -167 -81 -168 -163 -1 -45 -2 -45 -45 -57 -61 -18 -186 -8 -248 19 -75
33 -146 93 -185 155 l-35 56 -57 0 c-49 0 -58 -3 -58 -18z m832 -129 c10 -9
18 -26 18 -39 0 -23 -33 -54 -57 -54 -18 0 -53 37 -53 55 0 20 36 55 57 55 9
0 25 -7 35 -17z"/>
</g>
</svg>
